<mxfile host="app.diagrams.net" modified="2024-04-26T21:37:00.089Z" agent="Mozilla/5.0 (Windows NT 10.0; Win64; x64; rv:125.0) Gecko/20100101 Firefox/125.0" etag="APlCkvIQaVbnpOV2eEEt" version="22.1.22" type="device">
  <diagram name="Page-1" id="-52Nwz3m5UT1qXGx4I4T">
    <mxGraphModel dx="1290" dy="1658" grid="1" gridSize="10" guides="1" tooltips="1" connect="1" arrows="1" fold="1" page="1" pageScale="1" pageWidth="850" pageHeight="1100" math="0" shadow="0">
      <root>
        <mxCell id="0" />
        <mxCell id="1" parent="0" />
        <mxCell id="Ux_-wwElseKbXse17q5J-1" value="Windows desktop application" style="html=1;whiteSpace=wrap;" vertex="1" parent="1">
          <mxGeometry x="190" y="150" width="110" height="50" as="geometry" />
        </mxCell>
        <mxCell id="Ux_-wwElseKbXse17q5J-2" value="Microsoft HoloLens2" style="html=1;whiteSpace=wrap;" vertex="1" parent="1">
          <mxGeometry x="410" y="150" width="110" height="50" as="geometry" />
        </mxCell>
        <mxCell id="Ux_-wwElseKbXse17q5J-3" value="UAV" style="html=1;whiteSpace=wrap;" vertex="1" parent="1">
          <mxGeometry x="300" y="290" width="110" height="50" as="geometry" />
        </mxCell>
        <mxCell id="Ux_-wwElseKbXse17q5J-4" value="" style="endArrow=open;endFill=1;endSize=12;html=1;rounded=0;exitX=0;exitY=0.5;exitDx=0;exitDy=0;entryX=0.5;entryY=1;entryDx=0;entryDy=0;" edge="1" parent="1" source="Ux_-wwElseKbXse17q5J-3" target="Ux_-wwElseKbXse17q5J-1">
          <mxGeometry width="160" relative="1" as="geometry">
            <mxPoint x="340" y="270" as="sourcePoint" />
            <mxPoint x="500" y="270" as="targetPoint" />
          </mxGeometry>
        </mxCell>
        <mxCell id="Ux_-wwElseKbXse17q5J-6" value="" style="endArrow=open;endFill=1;endSize=12;html=1;rounded=0;exitX=1;exitY=0.5;exitDx=0;exitDy=0;entryX=0;entryY=0.5;entryDx=0;entryDy=0;" edge="1" parent="1" source="Ux_-wwElseKbXse17q5J-1" target="Ux_-wwElseKbXse17q5J-2">
          <mxGeometry width="160" relative="1" as="geometry">
            <mxPoint x="340" y="270" as="sourcePoint" />
            <mxPoint x="500" y="270" as="targetPoint" />
          </mxGeometry>
        </mxCell>
        <mxCell id="Ux_-wwElseKbXse17q5J-8" value="Telemetry" style="text;html=1;strokeColor=none;fillColor=none;align=center;verticalAlign=middle;whiteSpace=wrap;rounded=0;" vertex="1" parent="1">
          <mxGeometry x="190" y="250" width="60" height="30" as="geometry" />
        </mxCell>
        <mxCell id="Ux_-wwElseKbXse17q5J-9" value="&lt;div align=&quot;left&quot;&gt;GPS position in UCS &amp;amp;&lt;br&gt;angular position&lt;/div&gt;" style="text;html=1;strokeColor=none;fillColor=none;align=left;verticalAlign=middle;whiteSpace=wrap;rounded=0;" vertex="1" parent="1">
          <mxGeometry x="312.5" y="110" width="85" height="30" as="geometry" />
        </mxCell>
        <mxCell id="Ux_-wwElseKbXse17q5J-10" value="&lt;h1&gt;DronePositioning&lt;br&gt;&lt;/h1&gt;&lt;p&gt;UAV sends telemetry data using radio signal to the desktop application, which performs flight trajectory accuracy computations and additionaly serves as a server sending position for display to HL2 (UDP client)&lt;br&gt;&lt;/p&gt;" style="text;html=1;strokeColor=none;fillColor=none;spacing=5;spacingTop=-20;whiteSpace=wrap;overflow=hidden;rounded=0;" vertex="1" parent="1">
          <mxGeometry x="40" y="-10" width="220" height="140" as="geometry" />
        </mxCell>
      </root>
    </mxGraphModel>
  </diagram>
</mxfile>
